PathFileType	4	(X/Y/Z)	/Users/visionmauri/4_1_1_f_Sports2D/4_1_1_f_Sports2D_px_person00.trc
DataRate	CameraRate	NumFrames	NumMarkers	Units	OrigDataRate	OrigDataStartFrame	OrigNumFrames
30.0	30.0	7	22	m	30.0	0	355
Frame#	Time	Hip			RHip			RKnee			RAnkle			RBigToe			RSmallToe			RHeel			LHip			LKnee			LAnkle			LBigToe			LSmallToe			LHeel			Neck			Head			Nose			RShoulder			RElbow			RWrist			LShoulder			LElbow			LWrist			
		X1	Y1	Z1	X2	Y2	Z2	X3	Y3	Z3	X4	Y4	Z4	X5	Y5	Z5	X6	Y6	Z6	X7	Y7	Z7	X8	Y8	Z8	X9	Y9	Z9	X10	Y10	Z10	X11	Y11	Z11	X12	Y12	Z12	X13	Y13	Z13	X14	Y14	Z14	X15	Y15	Z15	X16	Y16	Z16	X17	Y17	Z17	X18	Y18	Z18	X19	Y19	Z19	X20	Y20	Z20	X21	Y21	Z21	X22	Y22	Z22
0	0.0	499.8063362624219	888.9258163436265	0.0	573.7606332221081	896.321496842021	0.0	625.528940161383	1140.3716563583705	0.0	599.6451877597403	1129.2778461610262	0.0	584.8538624185576	1129.2767460011248	0.0	607.0405259091795	1125.5794567411722	0.0	588.5528086154371	1132.9755720205403	0.0	429.5490013767631	900.0191837150603	0.0	462.82894509687907	1192.1395511069688	0.0	477.61978311634044	1476.8643054333838	0.0	496.10808973152496	1543.4236939634281	0.0	459.1307537597899	1547.1211727574464	0.0	477.6191807773127	1532.330341997195	0.0	499.80606491403086	478.47842904227423	0.0	503.50380329183514	345.3599319397193	0.0	503.50286804578644	415.6167738440103	0.0	618.1336282460458	519.1528273660684	0.0	721.6695545056616	722.5280450494131	0.0	799.3223219735088	874.1344197631864	0.0	381.4788628381515	533.9437043805261	0.0	322.3154672370345	737.3191448340514	0.0	326.013384670977	874.1349102849033	0.0
1	0.033427495291902073	500.7472424707461	888.2700120453698	0.0	573.115650377715	895.1155471859887	0.0	624.5272021273588	1137.583214533267	0.0	600.277256759487	1128.4684173537764	0.0	585.327336246312	1118.7189451673432	0.0	606.4927429150664	1123.6616392936337	0.0	588.5433739124202	1132.3173587712758	0.0	429.295516564039	898.1828870906993	0.0	462.53917517772584	1189.968738963353	0.0	477.7257633818243	1475.2619216997543	0.0	496.57326938343203	1547.0701077334436	0.0	459.92280636430075	1548.6989166308765	0.0	476.360857666646	1530.3542356354076	0.0	500.519873074251	478.7617794670317	0.0	504.31076613404514	345.3122147498239	0.0	504.6009443584164	416.73870118820923	0.0	617.4295954147717	518.6184631834032	0.0	721.9115235853687	720.1766319035293	0.0	800.240755759955	874.8541491613283	0.0	381.27785180046646	534.3726798595299	0.0	323.52725748020873	737.4589429197097	0.0	327.27342049349386	874.8915197956155	0.0
2	0.06685499058380415	503.60488683320744	888.121485158749	0.0	575.0003892461881	895.9284755677405	0.0	623.8477867141331	1135.037999186906	0.0	602.5861808986241	1128.9638263378774	0.0	586.1398875527165	1110.7358351713274	0.0	606.2812230673152	1127.5476552639009	0.0	590.4569295267415	1131.1045504511087	0.0	431.0586681571899	897.7117350872547	0.0	462.31158398333673	1189.1004143512257	0.0	478.3114476289039	1474.588503245421	0.0	496.3936140608952	1548.5234217158616	0.0	458.4734022716968	1550.0318585123628	0.0	476.789059091157	1529.2666534696484	0.0	502.296279513777	479.38086395738765	0.0	506.20380078221984	345.89345757094753	0.0	505.413105077743	418.81625738481387	0.0	618.5225263020757	519.1389508214352	0.0	721.7145406954545	717.52551342938	0.0	800.5130413855387	875.130491092788	0.0	381.89421137655756	535.4504920201216	0.0	326.7258325870825	736.811414671938	0.0	327.751344162542	876.3419666602803	0.0
3	0.10028248587570622	507.69234586398545	889.2000154790253	0.0	579.3022697163859	898.6064679951306	0.0	624.299401851791	1134.55257214461	0.0	605.6604652340214	1130.5842244323812	0.0	587.1727362112177	1108.5840479913027	0.0	606.1378890347829	1136.7942006531862	0.0	593.1203806791733	1130.758690469436	0.0	434.71188931877504	899.5287488233274	0.0	462.2110726659048	1190.482370033273	0.0	478.81492430311215	1475.37070454561	0.0	495.23914221128535	1547.8329564949508	0.0	454.7510349096948	1551.3229449315259	0.0	479.0070630331623	1529.7453167943293	0.0	505.06854505413776	480.629975396086	0.0	508.74889697674564	346.84207671595357	0.0	505.5123513096025	420.7978443194275	0.0	621.74972839648	520.6655824590126	0.0	721.4753250174921	715.688728284839	0.0	800.1949358990136	874.8971408284375	0.0	383.42416355986205	537.1688554841701	0.0	331.4211403656475	735.3651695075407	0.0	327.20657303901623	878.2103180762812	0.0
4	0.1337099811676083	510.730889756319	891.2877217130981	0.0	582.720131932108	901.1713608379064	0.0	625.9490419331158	1135.9408485316894	0.0	606.7202157004967	1131.8260617308058	0.0	587.856790671827	1111.454162008803	0.0	605.4301081968271	1141.101857949104	0.0	593.9288007031302	1132.5404449947844	0.0	437.83825943826787	902.4052591960416	0.0	462.4911976443641	1194.1372556659235	0.0	479.03389622839256	1477.9123785286085	0.0	492.47762413826575	1546.1272481121541	0.0	451.4583828673263	1551.531673966552	0.0	481.6359891024781	1531.7055048522711	0.0	508.01049942840854	481.8067770788478	0.0	510.69013434491467	347.2985863504477	0.0	506.05941943691823	420.98517011794553	0.0	625.8277227266715	522.0764946981751	0.0	723.0272951027146	715.9220403287867	0.0	799.8576973935974	874.711169748167	0.0	385.0556793878195	538.8555814769217	0.0	335.04323733272275	734.7865282648032	0.0	327.003382112696	879.6156434020693	0.0
5	0.16713747645951038	512.3168613611716	892.754040340429	0.0	583.583634594187	902.2540006496677	0.0	627.5859763925288	1135.6228416301556	0.0	605.6719129500557	1131.695982363596	0.0	587.9643661636726	1115.7274437640554	0.0	604.9826981747374	1135.215636395117	0.0	593.2774086373478	1135.273493585984	0.0	439.31217395387756	904.2522164649417	0.0	463.7238612517483	1198.2168480975195	0.0	479.67264797025507	1481.40029134042	0.0	488.9459040784075	1544.3533424382067	0.0	451.00051425271977	1549.937069892324	0.0	483.570256237895	1534.1282865924659	0.0	510.71524711205205	481.66561588226614	0.0	512.1895566419244	347.0985324092572	0.0	508.17678027102687	419.74396715487217	0.0	629.4890731039293	522.7816985587457	0.0	726.782170046831	717.2438962418541	0.0	799.5727747775151	874.7799480259838	0.0	386.5423367329282	539.8582614755151	0.0	336.1344536852551	736.6218504507113	0.0	328.4779320322923	880.2685250135895	0.0
6	0.20056497175141244	514.2787552885183	892.6593293235205	0.0	584.7158113415458	901.8028051591898	0.0	628.2957947841833	1132.357320333702	0.0	605.9318842896274	1130.4139857336868	0.0	588.434347560029	1117.6042066626396	0.0	606.7985770432925	1128.9946362198498	0.0	594.3030647438635	1137.095416641614	0.0	440.7899735359445	905.3494865375495	0.0	465.87183693502953	1200.002044339273	0.0	480.57655521305895	1483.7829766664977	0.0	487.8323954933659	1543.6808716561752	0.0	452.8394764931044	1548.608629689868	0.0	484.40359020907607	1535.6122952539813	0.0	513.6913528881286	480.5338152140279	0.0	514.8205691371298	346.9183351724589	0.0	509.88141379773964	418.8708856956787	0.0	632.5840938111421	523.2774332002554	0.0	730.0512679157468	717.4927284336517	0.0	799.262240518	874.161653338291	0.0	388.86103143749233	540.1714765055685	0.0	336.33301263421146	739.4726106327314	0.0	330.69278539232755	880.5740661461648	0.0
